<?xml version="1.0" standalone="no"?><!DOCTYPE svg PUBLIC "-//W3C//DTD SVG 1.1//EN" "http://www.w3.org/Graphics/SVG/1.1/DTD/svg11.dtd"><svg fill="#ffffff" t="1787211421616" class="icon" viewBox="0 0 1138 1024" version="1.1" xmlns="http://www.w3.org/2000/svg" p-id="1107" xmlns:xlink="http://www.w3.org/1999/xlink" width="222.265625" height="200"><path d="M552.19194636 910.53572857q-14.5136423 0-24.32600351-9.88066036-9.82374349-9.8692767-9.82374349-24.47398408 0-14.5933251 9.82374349-24.26908665 9.81235983-9.67576154 24.32600351-9.67576152h352.88071163v-346.05076223q0-140.79940359-99.39852867-238.86609195Q706.27560068 159.24130977 563.5751949 159.24130977q-142.70040716 0-242.09893443 98.07807201Q222.07773181 355.38606874 222.07773181 496.18547373v254.98477253q0 9.67576154-6.54536779 16.2211293T199.31123473 773.93674334q-37.564721 0-64.31535535-26.75063434T108.24524364 682.87075363v-91.06599107q0-23.90482221 11.95241179-44.96383229T153.77823918 513.26034653l3.41497402-60.33121809q9.10659966-77.40609228 44.96383366-143.42893464t89.92766456-114.97081329q54.07043195-48.94796955 124.07741158-76.26776577T563.5751949 90.94181715q77.40609228 0 146.84390865 27.31979759t124.07741156 75.6986039Q889.13610893 242.33902631 924.42418107 308.36186867t45.53299414 143.42893465l3.4149754 59.19289294q21.62817332 10.24492341 33.58058375 30.73477162t11.95241179 43.25634528v104.72588849q0 22.76649709-11.95241179 43.25634529T973.37215061 763.69181993v78.54441603q0 28.17354111-20.05728462 48.23082435Q933.24619909 910.53572857 905.07265799 910.53572857H552.19194636zM402.5022242 570.54085367q-9.67576154-9.8692767-9.67576154-24.47398409 0-14.5933251 9.88066037-24.26908664 9.8692767-9.67576154 24.47398545-9.67576154 14.5933251 0 24.26908526 9.88066037 9.67576154 9.8692767 9.67576154 24.47398407 0 14.5933251-9.88065898 24.26908664-9.8692767 9.67576154-24.47398546 9.67576154-14.5933251 0-24.26908664-9.88066035z m273.19797047 0q-9.67576154-9.8692767-9.67576153-24.47398409 0-14.5933251 9.88066035-24.26908664 9.8692767-9.67576154 24.47398547-9.67576154 14.5933251 0 24.26908526 9.88066037 9.67576154 9.8692767 9.67576153 24.47398407 0 14.5933251-9.88065898 24.26908664-9.8692767 9.67576154-24.47398546 9.67576154-14.5933251 0-24.26908664-9.88066035zM291.51554955 521.22862106q-7.96827453-120.66243756 72.85279176-207.17512812t201.48350384-86.51269055q99.03426422 0 171.887056 65.45368048T826.52824196 456.34410245q-101.3109145-1.13832514-184.9777929-56.91624408T512.03184389 252.58394974Q494.13737715 343.64993942 435.51364607 414.79524418T291.51554955 521.22862106z" fill="#434343" p-id="1108"></path></svg>